<svg width="24" height="24" viewBox="0 0 24 24" fill="none" xmlns="http://www.w3.org/2000/svg">
<path d="M17.7187 15.1875C16.8631 15.1872 16.0414 15.5223 15.4298 16.1208L9.46874 12.7692C9.59123 12.2637 9.59123 11.7363 9.46874 11.2308L15.428 7.87923C15.9847 8.42076 16.716 8.74646 17.4909 8.79802C18.2659 8.84957 19.0339 8.62362 19.6574 8.16061C20.281 7.69761 20.7194 7.02777 20.8941 6.27103C21.0689 5.51429 20.9686 4.72006 20.6112 4.03051C20.2538 3.34097 19.6627 2.80114 18.9436 2.50766C18.2245 2.21419 17.4245 2.18624 16.6867 2.42881C15.9489 2.67139 15.3215 3.16865 14.9169 3.83157C14.5122 4.49449 14.3567 5.27979 14.4783 6.04689L8.37843 9.47814C7.8993 9.07895 7.31634 8.82456 6.69784 8.74478C6.07933 8.66501 5.4509 8.76314 4.88617 9.02768C4.32143 9.29222 3.84377 9.71222 3.50916 10.2385C3.17454 10.7647 2.99683 11.3754 2.99683 11.9991C2.99683 12.6227 3.17454 13.2334 3.50916 13.7597C3.84377 14.2859 4.32143 14.7059 4.88617 14.9705C5.4509 15.235 6.07933 15.3331 6.69784 15.2534C7.31634 15.1736 7.8993 14.9192 8.37843 14.52L14.4783 17.9531C14.3728 18.6158 14.4731 19.2949 14.7656 19.8989C15.058 20.5028 15.5286 21.0026 16.1139 21.3308C16.6992 21.659 17.3711 21.7998 18.0389 21.7344C18.7067 21.6689 19.3385 21.4002 19.8489 20.9646C20.3593 20.529 20.7239 19.9473 20.8935 19.2981C21.0631 18.6488 21.0295 17.9632 20.7974 17.3336C20.5653 16.704 20.1457 16.1607 19.5952 15.777C19.0447 15.3932 18.3898 15.1875 17.7187 15.1875Z" fill="#FF4500"/>
</svg>
