<svg width="16" height="16" viewBox="0 0 16 16" fill="none" xmlns="http://www.w3.org/2000/svg">
<path d="M1.88875 12.1616C1.88875 12.1638 1.88875 12.1678 1.88625 12.1734C1.88719 12.1697 1.88782 12.1656 1.88875 12.1616Z" fill="#FF4500"/>
<path d="M13.7469 12.675C13.644 12.6728 13.5424 12.6516 13.4472 12.6125L11.6728 11.9834L11.6597 11.9781C11.621 11.962 11.5794 11.9539 11.5375 11.9544C11.4989 11.9544 11.4605 11.9614 11.4244 11.975C11.3813 11.9913 10.9928 12.1372 10.5853 12.2491C10.3644 12.3097 9.59531 12.5075 8.97813 12.5075C7.40063 12.5075 5.92563 11.9013 4.82532 10.8003C4.28779 10.2661 3.86156 9.63054 3.57131 8.93048C3.28106 8.23041 3.13255 7.47972 3.13438 6.72188C3.13437 6.327 3.1769 5.93327 3.26125 5.5475C3.53594 4.27813 4.26344 3.12344 5.30969 2.2975C6.38293 1.45564 7.70785 0.998698 9.07188 1C10.7034 1 12.2238 1.625 13.3531 2.75563C14.4206 3.82656 15.0056 5.23469 15.0009 6.72031C15 7.82424 14.6704 8.90289 14.0541 9.81875L14.0481 9.8275L14.025 9.85875C14.0197 9.86594 14.0144 9.87281 14.0094 9.88L14.0047 9.88844C13.9923 9.90958 13.981 9.93138 13.9709 9.95375L14.4628 11.7019C14.4846 11.774 14.4963 11.8488 14.4978 11.9241C14.4979 12.0227 14.4786 12.1204 14.4409 12.2116C14.4032 12.3027 14.3479 12.3856 14.2781 12.4553C14.2084 12.5251 14.1256 12.5804 14.0344 12.6181C13.9432 12.6558 13.8455 12.6751 13.7469 12.675Z" fill="#FF4500"/>
<path d="M9.37094 13.2934C9.33865 13.2306 9.29322 13.1755 9.23773 13.1318C9.18224 13.0882 9.118 13.0569 9.04937 13.0403C8.86875 12.9925 8.65812 13.0006 8.49719 12.9887C6.97761 12.8831 5.54764 12.2309 4.47156 11.1528C3.51492 10.2015 2.8932 8.96521 2.7 7.63C2.65625 7.32562 2.65625 7.25 2.65625 7.25C2.65623 7.14845 2.62529 7.04931 2.56754 6.96577C2.50979 6.88224 2.42798 6.81827 2.33298 6.78237C2.23799 6.74647 2.13431 6.74036 2.03575 6.76483C1.93719 6.7893 1.84842 6.84321 1.78125 6.91937C1.78125 6.91937 1.535 7.1875 1.41875 7.45656C1.09271 8.20777 0.953671 9.02683 1.01354 9.84355C1.07341 10.6603 1.3304 11.4503 1.7625 12.1459C1.84375 12.2812 1.84375 12.3437 1.82563 12.4844C1.74031 12.9253 1.59094 13.7031 1.51313 14.1066C1.48736 14.2374 1.49694 14.3727 1.54089 14.4986C1.58483 14.6245 1.66154 14.7364 1.76313 14.8228L1.7775 14.835C1.91188 14.9417 2.0784 14.9999 2.25 15C2.34652 15.0001 2.44211 14.9811 2.53125 14.9441L4.20344 14.2987C4.26101 14.2769 4.32461 14.2769 4.38219 14.2987C5.04063 14.5437 5.72594 14.6737 6.37531 14.6737C7.18442 14.6745 7.98373 14.4967 8.71625 14.1531C8.88688 14.0731 9.15375 13.9862 9.31 13.8056C9.36913 13.7356 9.40642 13.6497 9.41725 13.5587C9.42808 13.4676 9.41198 13.3754 9.37094 13.2934Z" fill="#FF4500"/>
</svg>
