<svg width="22" height="16" viewBox="0 0 22 16" fill="none" xmlns="http://www.w3.org/2000/svg">
<path d="M0.00497437 2.512L10.6676 7.84267L21.3303 2.512C21.2908 1.83259 20.9931 1.19398 20.4981 0.726969C20.003 0.259954 19.3482 -0.00012478 18.6676 4.49112e-08H2.66764C1.98709 -0.00012478 1.33224 0.259954 0.837211 0.726969C0.342185 1.19398 0.0444465 1.83259 0.00497437 2.512Z" fill="#A8A8A8"/>
<path d="M21.3333 5.49066L10.6667 10.824L0 5.49066V13.3333C0 14.0406 0.280951 14.7188 0.781048 15.2189C1.28115 15.719 1.95942 16 2.66667 16H18.6667C19.3739 16 20.0522 15.719 20.5523 15.2189C21.0524 14.7188 21.3333 14.0406 21.3333 13.3333V5.49066Z" fill="#A8A8A8"/>
</svg>
