<svg width="18" height="18" viewBox="0 0 18 18" fill="none" xmlns="http://www.w3.org/2000/svg">
<path d="M9 18C7.78125 18 6.61523 17.7627 5.50195 17.2881C4.38867 16.8135 3.43066 16.1748 2.62793 15.3721C1.8252 14.5693 1.18652 13.6113 0.711914 12.498C0.237305 11.3848 0 10.2188 0 9C0 7.78125 0.237305 6.61523 0.711914 5.50195C1.18652 4.38867 1.8252 3.43066 2.62793 2.62793C3.43066 1.8252 4.38867 1.18652 5.50195 0.711914C6.61523 0.237305 7.78125 0 9 0C10.2188 0 11.3848 0.237305 12.498 0.711914C13.6113 1.18652 14.5693 1.8252 15.3721 2.62793C16.1748 3.43066 16.8135 4.38867 17.2881 5.50195C17.7627 6.61523 18 7.78125 18 9C18 10.2188 17.7627 11.3848 17.2881 12.498C16.8135 13.6113 16.1748 14.5693 15.3721 15.3721C14.5693 16.1748 13.6113 16.8135 12.498 17.2881C11.3848 17.7627 10.2188 18 9 18ZM9 1.125C7.93359 1.125 6.91406 1.33301 5.94141 1.74902C4.96875 2.16504 4.13086 2.72461 3.42773 3.42773C2.72461 4.13086 2.16504 4.96875 1.74902 5.94141C1.33301 6.91406 1.125 7.93652 1.125 9.00879C1.125 10.0811 1.33301 11.1006 1.74902 12.0674C2.16504 13.0342 2.72461 13.8691 3.42773 14.5723C4.13086 15.2754 4.96875 15.835 5.94141 16.251C6.91406 16.667 7.93359 16.875 9 16.875C10.0664 16.875 11.0859 16.667 12.0586 16.251C13.0312 15.835 13.8691 15.2754 14.5723 14.5723C15.2754 13.8691 15.835 13.0342 16.251 12.0674C16.667 11.1006 16.875 10.0811 16.875 9.00879C16.875 7.93652 16.667 6.91406 16.251 5.94141C15.835 4.96875 15.2754 4.13086 14.5723 3.42773C13.8691 2.72461 13.0312 2.16504 12.0586 1.74902C11.0859 1.33301 10.0664 1.125 9 1.125ZM9 13.5C7.75781 13.5 6.69727 13.0605 5.81836 12.1816C4.93945 11.3027 4.5 10.2422 4.5 9C4.5 7.75781 4.93945 6.69727 5.81836 5.81836C6.69727 4.93945 7.75781 4.5 9 4.5C10.2422 4.5 11.3027 4.93945 12.1816 5.81836C13.0605 6.69727 13.5 7.75781 13.5 9C13.5 10.2422 13.0605 11.3027 12.1816 12.1816C11.3027 13.0605 10.2422 13.5 9 13.5Z" fill="white"/>
</svg>
