<svg width="20" height="13" viewBox="0 0 20 13" fill="none" xmlns="http://www.w3.org/2000/svg">
<path fill-rule="evenodd" clip-rule="evenodd" d="M12.4942 2.50192C12.1625 2.50192 11.8443 2.37012 11.6097 2.13552C11.3751 1.90092 11.2433 1.58274 11.2433 1.25096C11.2433 0.919185 11.3751 0.600999 11.6097 0.366398C11.8443 0.131798 12.1625 0 12.4942 0H18.749C19.0808 0 19.399 0.131798 19.6336 0.366398C19.8682 0.600999 20 0.919185 20 1.25096V7.50576C20 7.83754 19.8682 8.15573 19.6336 8.39033C19.399 8.62493 19.0808 8.75673 18.749 8.75673C18.4173 8.75673 18.0991 8.62493 17.8645 8.39033C17.6299 8.15573 17.4981 7.83754 17.4981 7.50576V4.27078L12.1277 9.64115C11.8931 9.87567 11.575 10.0074 11.2433 10.0074C10.9116 10.0074 10.5934 9.87567 10.3588 9.64115L7.49039 6.7727L2.12002 12.1431C1.88408 12.3709 1.56809 12.497 1.24009 12.4942C0.912093 12.4913 0.598336 12.3598 0.366398 12.1278C0.13446 11.8959 0.0028975 11.5821 4.72896e-05 11.2541C-0.00280292 10.9261 0.123287 10.6102 0.351159 10.3742L6.60596 4.11941C6.84055 3.8849 7.15868 3.75315 7.49039 3.75315C7.8221 3.75315 8.14023 3.8849 8.37482 4.11941L11.2433 6.98787L15.7292 2.50192H12.4942Z" fill="#FF4500"/>
</svg>
