<svg width="20" height="20" viewBox="0 0 20 20" fill="none" xmlns="http://www.w3.org/2000/svg">
<path d="M19.181 6.12501C18.6802 4.92976 17.9516 3.84336 17.0359 2.92636C16.1229 2.00776 15.0384 1.27742 13.8439 0.776805C12.6203 0.261475 11.3056 -0.00268382 9.97787 2.05565e-05H9.93322C8.58278 0.00671698 7.27698 0.274574 6.04707 0.801359C4.86285 1.30711 3.78852 2.03874 2.88412 2.95537C1.97727 3.87032 1.25705 4.95292 0.76359 6.14287C0.251347 7.38029 -0.00820828 8.70766 0.000197838 10.0469C0.00689426 11.596 0.37743 13.1339 1.06939 14.5089V17.9018C1.06939 18.4688 1.52921 18.9286 2.09395 18.9286H5.48234C6.86375 19.6256 8.38815 19.9924 9.93546 20H9.98233C11.3172 20 12.6096 19.7411 13.8283 19.2344C15.0167 18.7397 16.0972 18.0179 17.0091 17.1094C17.9288 16.1964 18.652 15.1295 19.1587 13.9397C19.6832 12.7076 19.9511 11.3973 19.9578 10.0447C19.9622 8.68528 19.6988 7.36608 19.181 6.12501ZM5.52251 11.0714C4.93323 11.0714 4.45332 10.5915 4.45332 10C4.45332 9.40849 4.93323 8.92858 5.52251 8.92858C6.1118 8.92858 6.59171 9.40849 6.59171 10C6.59171 10.5915 6.11403 11.0714 5.52251 11.0714ZM9.97787 11.0714C9.38858 11.0714 8.90867 10.5915 8.90867 10C8.90867 9.40849 9.38858 8.92858 9.97787 8.92858C10.5672 8.92858 11.0471 9.40849 11.0471 10C11.0471 10.5915 10.5672 11.0714 9.97787 11.0714ZM14.4332 11.0714C13.8439 11.0714 13.364 10.5915 13.364 10C13.364 9.40849 13.8439 8.92858 14.4332 8.92858C15.0225 8.92858 15.5024 9.40849 15.5024 10C15.5024 10.5915 15.0225 11.0714 14.4332 11.0714Z" fill="#A8A8A8"/>
</svg>
