<svg width="17" height="20" viewBox="0 0 17 20" fill="none" xmlns="http://www.w3.org/2000/svg">
<path d="M0 15.1357C1.25641 9.57645 3.94092 4.44092 7.78852 0.236123C7.85693 0.161693 7.94005 0.102276 8.03261 0.061631C8.12517 0.0209865 8.22517 0 8.32626 0C8.42735 0 8.52734 0.0209865 8.61991 0.061631C8.71247 0.102276 8.79559 0.161693 8.864 0.236123C9.01555 0.400457 9.14154 0.539228 9.24105 0.651523C12.8898 4.77984 15.4388 9.76143 16.6525 15.1357C14.6979 15.5475 12.6902 15.8177 10.6415 15.9337L8.73435 19.7481C8.6964 19.8238 8.63813 19.8874 8.56606 19.9319C8.49399 19.9764 8.41096 20 8.32626 20C8.24156 20 8.15853 19.9764 8.08646 19.9319C8.01438 19.8874 7.95611 19.8238 7.91816 19.7481L6.01097 15.9337C3.99008 15.8195 1.9807 15.5527 0 15.1357ZM8.32626 12.3475C9.05266 12.3475 9.74931 12.059 10.263 11.5453C10.7766 11.0317 11.0652 10.335 11.0652 9.60864C11.0652 8.88224 10.7766 8.18559 10.263 7.67195C9.74931 7.1583 9.05266 6.86974 8.32626 6.86974C7.59986 6.86974 6.90321 7.1583 6.38956 7.67195C5.87592 8.18559 5.58736 8.88224 5.58736 9.60864C5.58736 10.335 5.87592 11.0317 6.38956 11.5453C6.90321 12.059 7.59986 12.3475 8.32626 12.3475Z" fill="#FF4500"/>
</svg>
