<svg width="18" height="18" viewBox="0 0 18 18" fill="none" xmlns="http://www.w3.org/2000/svg">
<path d="M3.78947 18H0.947368C0.696111 18 0.455144 17.9002 0.277478 17.7225C0.0998117 17.5449 0 17.3039 0 17.0526V9.47368C0 9.22243 0.0998117 8.98146 0.277478 8.80379C0.455144 8.62613 0.696111 8.52632 0.947368 8.52632H3.78947C4.04073 8.52632 4.2817 8.62613 4.45936 8.80379C4.63703 8.98146 4.73684 9.22243 4.73684 9.47368V17.0526C4.73684 17.3039 4.63703 17.5449 4.45936 17.7225C4.2817 17.9002 4.04073 18 3.78947 18ZM10.4211 18H7.57895C7.32769 18 7.08672 17.9002 6.90906 17.7225C6.73139 17.5449 6.63158 17.3039 6.63158 17.0526V0.947368C6.63158 0.696111 6.73139 0.455144 6.90906 0.277478C7.08672 0.0998117 7.32769 0 7.57895 0H10.4211C10.6723 0 10.9133 0.0998117 11.0909 0.277478C11.2686 0.455144 11.3684 0.696111 11.3684 0.947368V17.0526C11.3684 17.3039 11.2686 17.5449 11.0909 17.7225C10.9133 17.9002 10.6723 18 10.4211 18ZM17.0526 18H14.2105C13.9593 18 13.7183 17.9002 13.5406 17.7225C13.363 17.5449 13.2632 17.3039 13.2632 17.0526V6.63158C13.2632 6.38032 13.363 6.13935 13.5406 5.96169C13.7183 5.78402 13.9593 5.68421 14.2105 5.68421H17.0526C17.3039 5.68421 17.5449 5.78402 17.7225 5.96169C17.9002 6.13935 18 6.38032 18 6.63158V17.0526C18 17.3039 17.9002 17.5449 17.7225 17.7225C17.5449 17.9002 17.3039 18 17.0526 18Z" fill="#FF4500"/>
</svg>
