<svg width="93" height="32" viewBox="0 0 93 32" fill="none" xmlns="http://www.w3.org/2000/svg">
<path d="M83.895 13.0406C85.0128 13.0406 85.9189 12.1344 85.9189 11.0167C85.9189 9.89894 85.0128 8.99283 83.895 8.99283C82.7773 8.99283 81.8712 9.89894 81.8712 11.0167C81.8712 12.1344 82.7773 13.0406 83.895 13.0406Z" fill="#FF4500"/>
<path d="M54.9881 19.6468C55.981 19.6468 56.5538 18.9022 56.5156 18.1766C56.4965 17.7948 56.4583 17.5466 56.4201 17.3556C55.8091 14.7208 53.6707 12.7733 51.1313 12.7733C48.1146 12.7733 45.6707 15.5036 45.6707 18.864C45.6707 22.2244 48.1146 24.9547 51.1313 24.9547C53.0215 24.9547 54.3772 24.2673 55.3509 23.179C55.8282 22.6444 55.7328 21.8234 55.16 21.4224C54.6826 21.0979 54.0908 21.2124 53.6516 21.5752C53.2316 21.938 52.4297 22.6635 51.1313 22.6635C49.6039 22.6635 48.3056 21.3461 48.0192 19.6086H54.9881V19.6468ZM51.1122 15.0835C52.4869 15.0835 53.6707 16.1528 54.1099 17.6229H48.1146C48.5538 16.1337 49.7375 15.0835 51.1122 15.0835Z" fill="#222222"/>
<path d="M45.7852 13.9761C45.7852 13.4033 45.3652 12.9451 44.8306 12.8496C43.1695 12.6014 41.6038 13.2124 40.7065 14.3389V14.1861C40.7065 13.4797 40.1337 13.0406 39.5609 13.0406C38.9308 13.0406 38.4153 13.5561 38.4153 14.1861V23.5418C38.4153 24.1527 38.8735 24.6873 39.4845 24.7255C40.1527 24.7637 40.7065 24.2482 40.7065 23.5799V18.7494C40.7065 16.611 42.3103 14.8544 44.5251 15.1026C44.6014 15.1026 44.6778 15.1026 44.7542 15.1026C45.327 15.0644 45.7852 14.568 45.7852 13.9761Z" fill="#222222"/>
<path d="M85.0406 15.1981C85.0406 14.568 84.5251 14.0525 83.895 14.0525C83.265 14.0525 82.7495 14.568 82.7495 15.1981C82.7495 15.2363 82.7495 23.2172 82.7495 23.58C82.7495 24.21 83.265 24.7256 83.895 24.7256C84.5251 24.7256 85.0406 24.21 85.0406 23.58C85.0406 23.2363 85.0406 15.2554 85.0406 15.1981Z" fill="#222222"/>
<path d="M68.0095 8.85918C68.0095 8.22911 67.494 7.71359 66.8639 7.71359C66.2339 7.71359 65.7184 8.22911 65.7184 8.85918V13.957C64.9355 13.1742 63.9618 12.7924 62.7971 12.7924C59.7804 12.7924 57.3365 15.5227 57.3365 18.883C57.3365 22.2434 59.7804 24.9737 62.7971 24.9737C63.9618 24.9737 64.9546 24.5728 65.7374 23.79C65.8329 24.3246 66.3102 24.7255 66.8639 24.7255C67.494 24.7255 68.0095 24.21 68.0095 23.5799C68.0095 23.5799 68.0095 8.85918 68.0095 8.85918ZM62.8162 22.7017C61.0596 22.7017 59.6468 21.0024 59.6468 18.883C59.6468 16.7828 61.0596 15.0644 62.8162 15.0644C64.5728 15.0644 65.9857 16.7637 65.9857 18.883C65.9857 21.0024 64.5537 22.7017 62.8162 22.7017Z" fill="#222222"/>
<path d="M79.9618 8.85918C79.9618 8.22911 79.4463 7.71359 78.8162 7.71359C78.1861 7.71359 77.6706 8.22911 77.6706 8.85918V13.957C76.8878 13.1742 75.9141 12.7924 74.7494 12.7924C71.7327 12.7924 69.2888 15.5227 69.2888 18.883C69.2888 22.2434 71.7327 24.9737 74.7494 24.9737C75.9141 24.9737 76.9069 24.5728 77.6897 23.79C77.7852 24.3246 78.2625 24.7255 78.8162 24.7255C79.4463 24.7255 79.9618 24.21 79.9618 23.5799C79.9618 23.5799 79.9618 8.85918 79.9618 8.85918ZM74.7494 22.7017C72.9928 22.7017 71.5799 21.0024 71.5799 18.883C71.5799 16.7828 72.9928 15.0644 74.7494 15.0644C76.5059 15.0644 77.9188 16.7637 77.9188 18.883C77.9188 21.0024 76.5059 22.7017 74.7494 22.7017Z" fill="#222222"/>
<path d="M90.8448 23.599V15.0835H91.8568C92.3914 15.0835 92.8687 14.6826 92.9069 14.1289C92.9451 13.537 92.4677 13.0406 91.895 13.0406H90.8448V11.4367C90.8448 10.8258 90.3866 10.2912 89.7756 10.253C89.1074 10.2148 88.5537 10.7303 88.5537 11.3986V13.0597H87.599C87.0644 13.0597 86.5871 13.4606 86.5489 14.0143C86.5107 14.6062 86.988 15.1026 87.5608 15.1026H88.5346V23.6181C88.5346 24.2482 89.0501 24.7637 89.6802 24.7637C90.3484 24.7255 90.8448 24.2291 90.8448 23.599Z" fill="#222222"/>
<path d="M16 32C24.8366 32 32 24.8366 32 16C32 7.16344 24.8366 0 16 0C7.16344 0 0 7.16344 0 16C0 24.8366 7.16344 32 16 32Z" fill="#FF4500"/>
<path d="M26.6731 16C26.6731 14.7017 25.6229 13.6706 24.3437 13.6706C23.7136 13.6706 23.1408 13.9188 22.7208 14.3198C21.117 13.1742 18.9213 12.4296 16.4773 12.3341L17.5466 7.33174L21.0215 8.07637C21.0597 8.95465 21.7852 9.66109 22.6826 9.66109C23.5991 9.66109 24.3437 8.91646 24.3437 8C24.3437 7.08353 23.5991 6.3389 22.6826 6.3389C22.0334 6.3389 21.4606 6.72076 21.1933 7.27446L17.3174 6.45346C17.2029 6.43436 17.0883 6.45346 17.012 6.51074C16.9165 6.56801 16.8592 6.66348 16.8401 6.77804L15.6563 12.3532C13.1742 12.4296 10.9404 13.1742 9.31744 14.3389C8.89739 13.9379 8.3246 13.6897 7.69453 13.6897C6.3962 13.6897 5.36517 14.7399 5.36517 16.0191C5.36517 16.9737 5.93797 17.7757 6.73988 18.1384C6.70169 18.3675 6.6826 18.5967 6.6826 18.8449C6.6826 22.4344 10.864 25.3556 16.0191 25.3556C21.1742 25.3556 25.3556 22.4535 25.3556 18.8449C25.3556 18.6157 25.3365 18.3675 25.2983 18.1384C26.1003 17.7757 26.6731 16.9546 26.6731 16ZM10.6731 17.6611C10.6731 16.7446 11.4177 16 12.3341 16C13.2506 16 13.9952 16.7446 13.9952 17.6611C13.9952 18.5776 13.2506 19.3222 12.3341 19.3222C11.4177 19.3413 10.6731 18.5776 10.6731 17.6611ZM19.9714 22.0716C18.8258 23.2172 16.6492 23.2936 16.0191 23.2936C15.3699 23.2936 13.1933 23.1981 12.0668 22.0716C11.895 21.8998 11.895 21.6325 12.0668 21.4606C12.2387 21.2888 12.506 21.2888 12.6778 21.4606C13.4034 22.1862 14.9308 22.4344 16.0191 22.4344C17.1074 22.4344 18.654 22.1862 19.3604 21.4606C19.5322 21.2888 19.7995 21.2888 19.9714 21.4606C20.1241 21.6325 20.1241 21.8998 19.9714 22.0716ZM19.6659 19.3413C18.7494 19.3413 18.0048 18.5967 18.0048 17.6802C18.0048 16.7637 18.7494 16.0191 19.6659 16.0191C20.5824 16.0191 21.327 16.7637 21.327 17.6802C21.327 18.5776 20.5824 19.3413 19.6659 19.3413Z" fill="white"/>
</svg>
